<svg width="26" height="28" viewBox="0 0 26 28" fill="none" xmlns="http://www.w3.org/2000/svg">
<path d="M7.29956 22.5173V17.0155H8.40613L8.87451 15.1286H7.29956V10.6993H8.70976C9.66314 10.6993 10.3583 10.8715 10.7953 11.2157C11.2455 11.5468 11.4706 12.083 11.4706 12.8246C11.4706 13.6323 11.2521 14.2215 10.8151 14.5923C10.6106 14.7649 10.3487 14.9118 10.0485 15.0011L9.43141 17.8365L12.0069 22.5173H15.0259L11.4309 16.5388C12.3842 16.168 13.086 15.6847 13.5362 15.0888C13.9865 14.493 14.2116 13.7382 14.2116 12.8246C14.2116 10.1366 12.3975 8.79256 8.76935 8.79256H4.67776V22.5173H7.29956Z" fill="#0A4600"/>
<path d="M19.3956 22.5172H20.5476L21.1435 5.13791H19.4155L14.7082 15.7244L14.2252 13.1323V13.2036L14.1994 13.5428L14.1541 13.8033L14.0798 14.0858L13.9666 14.4124L13.8955 14.5802L13.7953 14.77L13.6847 14.951L13.5951 15.0996L13.9534 17.1346H15.0855L20.0113 6.28991C19.8789 8.03777 19.773 10.0041 19.6935 12.1889L19.3956 22.5172Z" fill="#0A4600"/>
<path d="M11.3481 9.03338C11.3481 9.03338 11.7283 7.19326 11.9473 6.30977L12.5571 9.55709L12.7479 9.67024L12.927 9.7868L13.0873 9.92239L13.2619 10.0808L13.43 10.2683L13.5528 10.4202L13.6554 10.5764L13.75 10.7467L13.8453 10.9337L12.8014 5.13791H11.2323L10.4332 8.84588L10.6527 8.88005L10.8955 8.9267L11.1283 8.97843L11.3481 9.03338Z" fill="#0A4600"/>
<path d="M8.0345 18.7434H9.1865L10.8211 11.2963L10.7468 11.2317L10.6724 11.1735L10.5916 11.125L10.417 11.0312L10.3136 10.986L10.2037 10.9439L10.0841 10.9084L9.96122 10.8761L8.0345 18.7434Z" fill="#0A4600"/>
<path d="M7.29956 17.0155V16.8655H7.14956V17.0155H7.29956ZM7.29956 22.5173V22.6673H7.44956V22.5173H7.29956ZM4.67776 22.5173H4.52776V22.6673H4.67776V22.5173ZM4.67776 8.79256V8.64256H4.52776V8.79256H4.67776ZM13.5362 15.0888L13.4166 14.9984L13.4166 14.9984L13.5362 15.0888ZM11.4309 16.5388L11.3765 16.399L11.2106 16.4635L11.3023 16.6161L11.4309 16.5388ZM15.0259 22.5173V22.6673H15.2911L15.1545 22.44L15.0259 22.5173ZM12.0069 22.5173L11.8754 22.5896L11.9182 22.6673H12.0069V22.5173ZM7.29956 15.1286H7.14956V15.2786H7.29956V15.1286ZM8.87451 15.1286L9.02009 15.1647L9.06629 14.9786H8.87451V15.1286ZM10.8151 14.5923L10.9119 14.7069L10.9122 14.7067L10.8151 14.5923ZM10.7953 11.2157L10.7024 11.3336L10.7064 11.3366L10.7953 11.2157ZM7.29956 10.6993V10.5493H7.14956V10.6993H7.29956ZM10.0485 15.0011L10.0057 14.8573L9.92077 14.8826L9.90192 14.9692L10.0485 15.0011ZM9.43141 17.8365L9.28484 17.8046L9.27288 17.8596L9.29999 17.9089L9.43141 17.8365ZM8.40613 17.0155V17.1655H8.52345L8.55171 17.0516L8.40613 17.0155ZM20.5476 22.5172V22.6672H20.6926L20.6975 22.5224L20.5476 22.5172ZM19.3956 22.5172L19.2457 22.5129L19.2412 22.6672H19.3956V22.5172ZM19.6935 12.1889L19.5436 12.1835L19.5436 12.1846L19.6935 12.1889ZM20.0113 6.28991L20.1609 6.30124L19.8748 6.22788L20.0113 6.28991ZM15.0855 17.1346V17.2846H15.1822L15.2221 17.1966L15.0855 17.1346ZM13.9534 17.1346L13.8057 17.1606L13.8275 17.2846H13.9534V17.1346ZM11.9473 6.30977L12.0948 6.28209L11.8017 6.27367L11.9473 6.30977ZM11.3481 9.03338L11.3117 9.1789L11.4633 9.21682L11.495 9.06373L11.3481 9.03338ZM9.1865 18.7434V18.8934H9.30715L9.33301 18.7756L9.1865 18.7434ZM8.0345 18.7434L7.88881 18.7077L7.84333 18.8934H8.0345V18.7434ZM11.2323 5.13791V4.98791H11.1112L11.0857 5.10631L11.2323 5.13791ZM12.8014 5.13791L12.949 5.11132L12.9268 4.98791H12.8014V5.13791ZM14.7082 15.7244L14.5607 15.7519L14.6491 16.2264L14.8452 15.7853L14.7082 15.7244ZM19.4155 5.13791V4.98791H19.318L19.2784 5.07696L19.4155 5.13791ZM21.1435 5.13791L21.2934 5.14305L21.2987 4.98791H21.1435V5.13791ZM10.8211 11.2963L10.9677 11.3285L10.9867 11.2415L10.9196 11.1831L10.8211 11.2963ZM10.4332 8.84588L10.2866 8.81428L10.2531 8.96965L10.4101 8.9941L10.4332 8.84588ZM10.8955 8.9267L10.928 8.78021L10.9238 8.7794L10.8955 8.9267ZM11.1283 8.97843L11.1646 8.83286L11.1608 8.832L11.1283 8.97843ZM10.6527 8.88005L10.681 8.73265L10.6758 8.73183L10.6527 8.88005ZM9.96122 10.8761L9.9994 10.731L9.85183 10.6922L9.81553 10.8404L9.96122 10.8761ZM10.0841 10.9084L10.1268 10.7645L10.1222 10.7633L10.0841 10.9084ZM10.5916 11.125L10.6689 10.9962L10.6626 10.9928L10.5916 11.125ZM12.5571 9.55709L12.4097 9.58477L12.4222 9.65147L12.4806 9.6861L12.5571 9.55709ZM12.7479 9.67024L12.8298 9.54441L12.8244 9.54123L12.7479 9.67024ZM13.8453 10.9337L13.7116 11.0018L13.9929 10.9071L13.8453 10.9337ZM13.5951 15.0996L13.4666 15.0222L13.4376 15.0703L13.4473 15.1256L13.5951 15.0996ZM14.2252 13.1323L14.3727 13.1048L14.0752 13.1323H14.2252ZM13.9666 14.4124L14.105 14.4711L14.1083 14.4615L13.9666 14.4124ZM14.0798 14.0858L14.2219 14.135L14.2248 14.1239L14.0798 14.0858ZM14.1541 13.8033L14.2997 13.8416L14.3019 13.8289L14.1541 13.8033ZM14.1994 13.5428L14.3472 13.5685L14.3484 13.5614L14.3489 13.5542L14.1994 13.5428ZM13.7953 14.77L13.9235 14.8483L13.9279 14.84L13.7953 14.77ZM13.8955 14.5802L14.0286 14.6504L14.0336 14.6387L13.8955 14.5802ZM13.6847 14.951L13.5567 14.8727L13.5562 14.8735L13.6847 14.951ZM10.3136 10.986L10.3738 10.8484L10.3672 10.8459L10.3136 10.986ZM10.2037 10.9439L10.2574 10.8034L10.2464 10.8002L10.2037 10.9439ZM10.417 11.0312L10.4882 10.8987L10.4772 10.8938L10.417 11.0312ZM10.6724 11.1735L10.7649 11.0553L10.7576 11.0496L10.7496 11.0448L10.6724 11.1735ZM10.7468 11.2317L10.8453 11.1183L10.8392 11.1135L10.7468 11.2317ZM14.2252 13.2036L14.3752 13.2151V13.2036H14.2252ZM13.0873 9.92239L13.1882 9.81124L13.1842 9.80786L13.0873 9.92239ZM13.2619 10.0808L13.3736 9.98067L13.3684 9.97491L13.3627 9.96971L13.2619 10.0808ZM13.43 10.2683L13.5468 10.1739L13.5417 10.1682L13.43 10.2683ZM13.5528 10.4202L13.6782 10.3379L13.6741 10.3317L13.6695 10.3259L13.5528 10.4202ZM13.6554 10.5764L13.7869 10.5034L13.7808 10.4941L13.6554 10.5764ZM13.75 10.7467L13.8837 10.6786L13.8812 10.6739L13.75 10.7467ZM12.927 9.7868L13.0238 9.67226L13.0167 9.6662L13.0088 9.66108L12.927 9.7868ZM8.06207 1C8.06207 1.44183 8.42024 1.8 8.86207 1.8C9.3039 1.8 9.66207 1.44183 9.66207 1C9.66207 0.558172 9.3039 0.2 8.86207 0.2C8.42024 0.2 8.06207 0.558172 8.06207 1ZM1 1V0.85H0.85V1H1ZM16.3379 26.6552C16.3379 27.097 16.6961 27.4552 17.1379 27.4552C17.5798 27.4552 17.9379 27.097 17.9379 26.6552C17.9379 26.2134 17.5798 25.8552 17.1379 25.8552C16.6961 25.8552 16.3379 26.2134 16.3379 26.6552ZM25 26.6552V26.8052H25.15V26.6552H25ZM7.14956 17.0155V22.5173H7.44956V17.0155H7.14956ZM7.29956 22.3673H4.67776V22.6673H7.29956V22.3673ZM4.82776 22.5173V8.79256H4.52776V22.5173H4.82776ZM4.67776 8.94256H8.76935V8.64256H4.67776V8.94256ZM8.76935 8.94256C10.5693 8.94256 11.892 9.27672 12.7617 9.92108C13.623 10.5592 14.0616 11.5179 14.0616 12.8246H14.3616C14.3616 11.4433 13.8931 10.3859 12.9403 9.68003C11.996 8.9804 10.5976 8.64256 8.76935 8.64256V8.94256ZM14.0616 12.8246C14.0616 13.713 13.843 14.434 13.4166 14.9984L13.6559 15.1793C14.1299 14.552 14.3616 13.7634 14.3616 12.8246H14.0616ZM13.4166 14.9984C12.9882 15.5653 12.3132 16.0347 11.3765 16.399L11.4852 16.6786C12.4553 16.3013 13.1838 15.8041 13.6559 15.1793L13.4166 14.9984ZM11.3023 16.6161L14.8974 22.5945L15.1545 22.44L11.5594 16.4615L11.3023 16.6161ZM15.0259 22.3673H12.0069V22.6673H15.0259V22.3673ZM7.29956 15.2786H8.87451V14.9786H7.29956V15.2786ZM10.9122 14.7067C11.3948 14.2972 11.6206 13.6576 11.6206 12.8246H11.3206C11.3206 13.607 11.1094 14.1459 10.7181 14.4779L10.9122 14.7067ZM11.6206 12.8246C11.6206 12.0523 11.3847 11.4629 10.8841 11.0949L10.7064 11.3366C11.1063 11.6306 11.3206 12.1137 11.3206 12.8246H11.6206ZM10.8881 11.0979C10.4116 10.7225 9.67508 10.5493 8.70976 10.5493V10.8493C9.65121 10.8493 10.3051 11.0205 10.7025 11.3336L10.8881 11.0979ZM8.70976 10.5493H7.29956V10.8493H8.70976V10.5493ZM7.14956 10.6993V15.1286H7.44956V10.6993H7.14956ZM10.0912 15.1448C10.4113 15.0497 10.6916 14.8928 10.9119 14.7069L10.7184 14.4776C10.5296 14.637 10.2861 14.7739 10.0057 14.8573L10.0912 15.1448ZM12.1383 22.4449L9.56283 17.7642L9.29999 17.9089L11.8754 22.5896L12.1383 22.4449ZM9.90192 14.9692L9.28484 17.8046L9.57798 17.8684L10.1951 15.033L9.90192 14.9692ZM8.40613 16.8655H7.29956V17.1655H8.40613V16.8655ZM8.72893 15.0924L8.26055 16.9793L8.55171 17.0516L9.02009 15.1647L8.72893 15.0924ZM20.5476 22.3672H19.3956V22.6672H20.5476V22.3672ZM19.5455 22.5215L19.8435 12.1933L19.5436 12.1846L19.2457 22.5129L19.5455 22.5215ZM19.8434 12.1944C19.9228 10.0111 20.0287 8.04674 20.1609 6.30124L19.8618 6.27858C19.7292 8.02881 19.6231 9.99716 19.5436 12.1835L19.8434 12.1944ZM19.8748 6.22788L14.949 17.0726L15.2221 17.1966L20.1479 6.35194L19.8748 6.22788ZM15.0855 16.9846H13.9534V17.2846H15.0855V16.9846ZM11.8017 6.27367C11.6916 6.71801 11.5413 7.40105 11.4189 7.97141C11.3576 8.25693 11.3032 8.5148 11.2641 8.70128C11.2445 8.79452 11.2288 8.86993 11.218 8.92205C11.2126 8.9481 11.2084 8.96833 11.2055 8.98206C11.2041 8.98892 11.203 8.99416 11.2023 8.99768C11.2019 8.99944 11.2016 9.00078 11.2015 9.00167C11.2014 9.00212 11.2013 9.00246 11.2013 9.00269C11.2012 9.0028 11.2012 9.00288 11.2012 9.00294C11.2012 9.00297 11.2012 9.00299 11.2012 9.00301C11.2012 9.00302 11.2012 9.00303 11.3481 9.03338C11.495 9.06373 11.495 9.06373 11.495 9.06372C11.495 9.0637 11.495 9.06368 11.495 9.06366C11.495 9.0636 11.495 9.06352 11.495 9.06341C11.4951 9.06319 11.4952 9.06286 11.4952 9.06242C11.4954 9.06154 11.4957 9.06022 11.4961 9.05847C11.4968 9.05498 11.4979 9.04978 11.4993 9.04295C11.5021 9.02928 11.5063 9.00912 11.5117 8.98313C11.5225 8.93116 11.5382 8.85591 11.5577 8.76284C11.5967 8.57669 11.6511 8.31931 11.7122 8.03436C11.8347 7.46379 11.984 6.78503 12.0929 6.34587L11.8017 6.27367ZM9.1865 18.5934H8.0345V18.8934H9.1865V18.5934ZM11.2323 5.28791H12.8014V4.98791H11.2323V5.28791ZM14.8452 15.7853L19.5525 5.19885L19.2784 5.07696L14.5711 15.6634L14.8452 15.7853ZM19.4155 5.28791H21.1435V4.98791H19.4155V5.28791ZM20.9936 5.13277L20.3977 22.5121L20.6975 22.5224L21.2934 5.14305L20.9936 5.13277ZM10.6746 11.2642L9.03999 18.7113L9.33301 18.7756L10.9677 11.3285L10.6746 11.2642ZM10.5798 8.87748L11.3789 5.16951L11.0857 5.10631L10.2866 8.81428L10.5798 8.87748ZM10.863 9.07313L11.0957 9.12485L11.1608 8.832L10.928 8.78027L10.863 9.07313ZM11.0919 9.12395L11.3117 9.1789L11.3845 8.88786L11.1646 8.83291L11.0919 9.12395ZM10.4101 8.9941L10.6296 9.02826L10.6758 8.73183L10.4563 8.69767L10.4101 8.9941ZM10.6244 9.02736L10.8672 9.07401L10.9238 8.7794L10.681 8.73274L10.6244 9.02736ZM8.18019 18.7791L10.1069 10.9117L9.81553 10.8404L7.88881 18.7077L8.18019 18.7791ZM10.1222 10.7633L9.9994 10.731L9.92305 11.0211L10.0459 11.0534L10.1222 10.7633ZM12.7046 9.52941L12.0948 6.28209L11.7999 6.33746L12.4097 9.58477L12.7046 9.52941ZM12.4806 9.6861L12.6713 9.79925L12.8244 9.54123L12.6337 9.42808L12.4806 9.6861ZM12.6538 5.1645L13.6977 10.9603L13.9929 10.9071L12.949 5.11132L12.6538 5.1645ZM14.1011 17.1086L13.7428 15.0736L13.4473 15.1256L13.8057 17.1606L14.1011 17.1086ZM14.0778 13.1598L14.5607 15.7519L14.8556 15.6969L14.3727 13.1048L14.0778 13.1598ZM14.1083 14.4615L14.2215 14.1349L13.938 14.0367L13.8249 14.3633L14.1083 14.4615ZM14.2248 14.1239L14.2992 13.8414L14.0091 13.7651L13.9347 14.0476L14.2248 14.1239ZM14.3019 13.8289L14.3472 13.5685L14.0516 13.5171L14.0063 13.7776L14.3019 13.8289ZM13.9279 14.84L14.0281 14.6502L13.7628 14.5101L13.6626 14.6999L13.9279 14.84ZM14.0336 14.6387L14.1047 14.471L13.8285 14.3539L13.7574 14.5216L14.0336 14.6387ZM13.7235 15.1771L13.8131 15.0284L13.5562 14.8735L13.4666 15.0222L13.7235 15.1771ZM13.8127 15.0292L13.9233 14.8482L13.6673 14.6918L13.5567 14.8727L13.8127 15.0292ZM10.3672 10.8459L10.2573 10.8038L10.1501 11.0841L10.26 11.1261L10.3672 10.8459ZM10.2464 10.8002L10.1268 10.7646L10.0413 11.0522L10.1609 11.0877L10.2464 10.8002ZM10.4772 10.8938L10.3737 10.8485L10.2535 11.1234L10.3569 11.1687L10.4772 10.8938ZM10.7496 11.0448L10.6688 10.9964L10.5144 11.2536L10.5953 11.3021L10.7496 11.0448ZM10.9196 11.1831L10.8452 11.1185L10.6484 11.3449L10.7227 11.4095L10.9196 11.1831ZM10.8392 11.1135L10.7649 11.0553L10.58 11.2916L10.6543 11.3498L10.8392 11.1135ZM14.3489 13.5542L14.3748 13.215L14.0757 13.1922L14.0498 13.5314L14.3489 13.5542ZM14.3752 13.2036V13.1323H14.0752V13.2036H14.3752ZM12.9865 10.0335L13.1611 10.1919L13.3627 9.96971L13.1881 9.81131L12.9865 10.0335ZM13.1502 10.1809L13.3183 10.3684L13.5417 10.1682L13.3736 9.98067L13.1502 10.1809ZM13.3133 10.3626L13.4362 10.5145L13.6695 10.3259L13.5466 10.174L13.3133 10.3626ZM13.4275 10.5026L13.5301 10.6588L13.7808 10.4941L13.6782 10.3379L13.4275 10.5026ZM13.5243 10.6493L13.6189 10.8196L13.8812 10.6739L13.7866 10.5036L13.5243 10.6493ZM13.6164 10.8149L13.7116 11.0018L13.9789 10.8656L13.8837 10.6786L13.6164 10.8149ZM12.666 9.79596L12.8451 9.91252L13.0088 9.66108L12.8297 9.54452L12.666 9.79596ZM12.8301 9.90133L12.9904 10.0369L13.1842 9.80786L13.0238 9.67226L12.8301 9.90133ZM8.86207 0.85H1V1.15H8.86207V0.85ZM0.85 1V15.069H1.15V1H0.85ZM17.1379 26.8052H25V26.5052H17.1379V26.8052ZM25.15 26.6552V12.5862H24.85V26.6552H25.15ZM10.6626 10.9928L10.488 10.8991L10.3461 11.1634L10.5206 11.2571L10.6626 10.9928Z" fill="#0A4600"/>
</svg>
