<svg width="24" height="24" viewBox="0 0 32 32" fill="none" xmlns="http://www.w3.org/2000/svg">
<path d="M18.6666 12.8667V11.2667C19.4 10.9556 20.15 10.7223 20.9166 10.5667C21.6833 10.4112 22.4889 10.3334 23.3333 10.3334C23.9111 10.3334 24.4778 10.3778 25.0333 10.4667C25.5889 10.5556 26.1333 10.6667 26.6666 10.8V12.2667C26.1333 12.0667 25.5944 11.9167 25.05 11.8167C24.5055 11.7167 23.9333 11.6667 23.3333 11.6667C22.4889 11.6667 21.6778 11.7723 20.9 11.9834C20.1222 12.1945 19.3778 12.4889 18.6666 12.8667ZM18.6666 20.2V18.5667C19.4 18.2667 20.15 18.0417 20.9166 17.8917C21.6833 17.7417 22.4889 17.6667 23.3333 17.6667C23.9111 17.6667 24.4778 17.7112 25.0333 17.8C25.5889 17.8889 26.1333 18 26.6666 18.1334V19.6C26.1333 19.4 25.5944 19.25 25.05 19.15C24.5055 19.05 23.9333 19 23.3333 19C22.4889 19 21.6778 19.1 20.9 19.3C20.1222 19.5 19.3778 19.8 18.6666 20.2ZM18.6666 16.5334V14.9334C19.4 14.6223 20.15 14.3889 20.9166 14.2334C21.6833 14.0778 22.4889 14 23.3333 14C23.9111 14 24.4778 14.0445 25.0333 14.1334C25.5889 14.2223 26.1333 14.3334 26.6666 14.4667V15.9334C26.1333 15.7334 25.5944 15.5834 25.05 15.4834C24.5055 15.3834 23.9333 15.3334 23.3333 15.3334C22.4889 15.3334 21.6778 15.4389 20.9 15.65C20.1222 15.8612 19.3778 16.1556 18.6666 16.5334ZM8.26665 22C9.457 22 10.6157 22.1389 11.7427 22.4167C12.8698 22.6945 13.9778 23.1112 15.0666 23.6667V9.43337C14.0666 8.76671 12.982 8.25004 11.8127 7.88337C10.6434 7.51671 9.46138 7.33337 8.26665 7.33337C7.4222 7.33337 6.59442 7.43893 5.78331 7.65004C4.9722 7.86115 4.15554 8.12226 3.33331 8.43337V22.9C4.0222 22.5889 4.80554 22.3612 5.68331 22.2167C6.56109 22.0723 7.4222 22 8.26665 22ZM17.0666 23.6667C18.1778 23.1112 19.2666 22.6945 20.3333 22.4167C21.4 22.1389 22.5333 22 23.7333 22C24.5778 22 25.45 22.0667 26.35 22.2C27.25 22.3334 28.0222 22.5112 28.6666 22.7334V8.43337C27.9111 8.0556 27.1131 7.77782 26.2726 7.60004C25.4321 7.42226 24.5856 7.33337 23.7333 7.33337C22.5333 7.33337 21.3722 7.51671 20.25 7.88337C19.1278 8.25004 18.0666 8.76671 17.0666 9.43337V23.6667ZM16.0666 26.6667C14.9333 25.8223 13.7 25.1723 12.3666 24.7167C11.0333 24.2612 9.66665 24.0334 8.26665 24.0334C7.45471 24.0334 6.65729 24.1334 5.87438 24.3334C5.09145 24.5334 4.31109 24.7778 3.53331 25.0667C3.01998 25.3112 2.52498 25.2778 2.04831 24.9667C1.57165 24.6556 1.33331 24.2112 1.33331 23.6334V8.20004C1.33331 7.86671 1.41109 7.56115 1.56665 7.28337C1.7222 7.0056 1.95554 6.78893 2.26665 6.63337C3.19998 6.18893 4.17104 5.86115 5.17981 5.65004C6.18857 5.43893 7.21751 5.33337 8.26665 5.33337C9.66665 5.33337 11.0278 5.52226 12.35 5.90004C13.6722 6.27782 14.9111 6.8556 16.0666 7.63337C17.2 6.8556 18.4166 6.27782 19.7166 5.90004C21.0166 5.52226 22.3555 5.33337 23.7333 5.33337C24.7748 5.33337 25.7963 5.43893 26.7978 5.65004C27.7992 5.86115 28.7666 6.18893 29.7 6.63337C30.0111 6.78893 30.25 7.0056 30.4166 7.28337C30.5833 7.56115 30.6666 7.86671 30.6666 8.20004V23.6334C30.6666 24.2532 30.4166 24.7249 29.9166 25.0483C29.4166 25.3717 28.9222 25.3778 28.4333 25.0667C27.6778 24.7556 26.9085 24.5056 26.1256 24.3167C25.3427 24.1278 24.5452 24.0334 23.7333 24.0334C22.3333 24.0334 20.9889 24.2667 19.7 24.7334C18.4111 25.2 17.2 25.8445 16.0666 26.6667Z" fill="url(#paint0_linear_12_76)"/>
<defs>
<linearGradient id="paint0_linear_12_76" x1="16" y1="5.33337" x2="16" y2="26.6667" gradientUnits="userSpaceOnUse">
<stop stop-color="#31AB1D"/>
<stop offset="1" stop-color="#1C830B"/>
</linearGradient>
</defs>
</svg>
