<svg width="24" height="32" viewBox="0 0 24 32" fill="none" xmlns="http://www.w3.org/2000/svg">
<g clip-path="url(#clip0_12_114)">
<path d="M0.875 5.98702C0.875 2.68048 3.55549 0 6.86206 0H17.1351C20.4416 0 23.1221 2.68048 23.1221 5.98702C23.1221 8.08075 22.0474 9.9235 20.4194 10.9936C22.0474 12.0637 23.1221 13.9064 23.1221 16.0001C23.1221 19.3067 20.4416 21.9872 17.1351 21.9872H17.0051C15.4549 21.9872 14.0424 21.3981 12.9791 20.4315V25.9479C12.9791 29.2986 10.2286 32 6.89431 32C3.59601 32 0.875 29.3277 0.875 26.0129C0.875 23.9193 1.94966 22.0767 3.57745 21.0066C1.94966 19.9364 0.875 18.0938 0.875 16.0001C0.875 13.9064 1.94975 12.0637 3.57766 10.9936C1.94975 9.9235 0.875 8.08075 0.875 5.98702ZM11.018 11.9742H6.86206C4.63857 11.9742 2.83611 13.7767 2.83611 16.0001C2.83611 18.215 4.62467 20.0121 6.83631 20.026C6.84487 20.0259 6.85344 20.0259 6.86206 20.0259H11.018V11.9742ZM12.9791 16.0001C12.9791 18.2236 14.7816 20.0261 17.0051 20.0261H17.1351C19.3586 20.0261 21.161 18.2236 21.161 16.0001C21.161 13.7767 19.3586 11.9742 17.1351 11.9742H17.0051C14.7816 11.9742 12.9791 13.7767 12.9791 16.0001ZM6.86206 21.9872C6.85344 21.9872 6.84487 21.9871 6.83631 21.9871C4.62467 22.0009 2.83611 23.7981 2.83611 26.0129C2.83611 28.2283 4.66266 30.0389 6.89431 30.0389C9.16194 30.0389 11.018 28.1991 11.018 25.9479V21.9872H6.86206ZM6.86206 1.96111C4.63857 1.96111 2.83611 3.76358 2.83611 5.98702C2.83611 8.2105 4.63857 10.0129 6.86206 10.0129H11.018V1.96111H6.86206ZM12.9791 10.0129H17.1351C19.3586 10.0129 21.161 8.2105 21.161 5.98702C21.161 3.76358 19.3586 1.96111 17.1351 1.96111H12.9791V10.0129Z" fill="#666666"/>
</g>
<defs>
<clipPath id="clip0_12_114">
<rect width="24" height="32" fill="white"/>
</clipPath>
</defs>
</svg>
