<svg width="24" height="28" viewBox="0 0 24 28" fill="none" xmlns="http://www.w3.org/2000/svg">
<path d="M0 2V26H24V2H0ZM13.0607 20.7179C13.0607 23.0536 11.6893 24.1196 9.69107 24.1196C7.88571 24.1196 6.84107 23.1875 6.30536 22.0571L8.14286 20.9482C8.49643 21.575 8.81786 22.1054 9.59464 22.1054C10.3339 22.1054 10.8054 21.8161 10.8054 20.6857V13.0196H13.0607V20.7179ZM18.3964 24.1196C16.3018 24.1196 14.9464 23.1232 14.2875 21.8161L16.125 20.7554C16.6071 21.5429 17.2393 22.1268 18.3482 22.1268C19.2804 22.1268 19.8804 21.6607 19.8804 21.0125C19.8804 20.2411 19.2696 19.9679 18.2357 19.5125L17.6732 19.2714C16.0446 18.5804 14.9679 17.7071 14.9679 15.8696C14.9679 14.1768 16.2589 12.8911 18.2679 12.8911C19.7036 12.8911 20.7321 13.3893 21.4714 14.6964L19.7143 15.8214C19.3286 15.1304 18.9107 14.8571 18.2625 14.8571C17.6036 14.8571 17.1857 15.275 17.1857 15.8214C17.1857 16.4964 17.6036 16.7696 18.5732 17.1929L19.1357 17.4339C21.0536 18.2536 22.1304 19.0946 22.1304 20.9804C22.1304 23.0054 20.5339 24.1196 18.3964 24.1196Z" fill="#666666"/>
</svg>
