<svg width="24" height="24" viewBox="0 0 32 32" fill="none" xmlns="http://www.w3.org/2000/svg">
<path d="M15.8333 29.3334L21.8666 13.3334H24.6L30.8 29.3334H27.9L26.5333 25.1334H20.1333L18.5666 29.3334H15.8333ZM20.8666 22.8001H25.6L23.2666 16.3334H23.2L20.8666 22.8001ZM5.33331 25.3334L3.49998 23.5001L10.3 16.7001C9.45554 15.7223 8.70554 14.739 8.04998 13.7501C7.39442 12.7612 6.8222 11.7334 6.33331 10.6667H9.23331C9.61109 11.4001 10.0278 12.0945 10.4833 12.7501C10.9389 13.4056 11.4555 14.0779 12.0333 14.7667C13.0333 13.7223 13.8666 12.639 14.5333 11.5167C15.2 10.3945 15.7666 9.2223 16.2333 8.00008H1.33331V5.33341H10.6666V2.66675H13.3333V5.33341H22.6666V8.00008H18.9C18.4111 9.53341 17.7611 11.039 16.95 12.5167C16.1389 13.9945 15.1444 15.4001 13.9666 16.7334L17.2333 20.0334L16.2333 22.7334L12 18.6667L5.33331 25.3334Z" fill="url(#paint0_linear_12_78)"/>
<defs>
<linearGradient id="paint0_linear_12_78" x1="16.0666" y1="2.66675" x2="16.0666" y2="29.3334" gradientUnits="userSpaceOnUse">
<stop stop-color="#31AB1D"/>
<stop offset="1" stop-color="#1C830B"/>
</linearGradient>
</defs>
</svg>
