<svg width="157" height="21" viewBox="0 0 157 21" fill="none" xmlns="http://www.w3.org/2000/svg">
<path d="M6.032 13.64H4.496V20H0.559998V3.36801H6.008C8.28 3.36801 9.984 3.78401 11.12 4.61601C12.272 5.44801 12.848 6.72001 12.848 8.43201C12.848 9.50401 12.592 10.4 12.08 11.12C11.568 11.824 10.76 12.424 9.656 12.92L13.88 20H9.44L6.032 13.64ZM4.496 10.928H6.152C7.032 10.928 7.688 10.728 8.12 10.328C8.568 9.92801 8.792 9.29601 8.792 8.43201C8.792 7.63201 8.552 7.04801 8.072 6.68001C7.608 6.31201 6.888 6.12801 5.912 6.12801H4.496V10.928Z" fill="#062700"/>
<path d="M25.1941 16.304C25.1941 16.784 25.2581 17.136 25.3861 17.36C25.5301 17.584 25.7541 17.752 26.0581 17.864L25.2661 20.336C24.4821 20.272 23.8421 20.104 23.3461 19.832C22.8501 19.544 22.4661 19.096 22.1941 18.488C21.3621 19.768 20.0821 20.408 18.3541 20.408C17.0901 20.408 16.0821 20.04 15.3301 19.304C14.5781 18.568 14.2021 17.608 14.2021 16.424C14.2021 15.032 14.7141 13.968 15.7381 13.232C16.7621 12.496 18.2421 12.128 20.1781 12.128H21.4741V11.576C21.4741 10.824 21.3141 10.312 20.9941 10.04C20.6741 9.75201 20.1141 9.60801 19.3141 9.60801C18.8981 9.60801 18.3941 9.67201 17.8021 9.80001C17.2101 9.91201 16.6021 10.072 15.9781 10.28L15.1141 7.78401C15.9141 7.48001 16.7301 7.24801 17.5621 7.08801C18.4101 6.92801 19.1941 6.84801 19.9141 6.84801C21.7381 6.84801 23.0741 7.22401 23.9221 7.97601C24.7701 8.72801 25.1941 9.85601 25.1941 11.36V16.304ZM19.4581 17.696C20.3221 17.696 20.9941 17.288 21.4741 16.472V14.216H20.5381C19.6741 14.216 19.0261 14.368 18.5941 14.672C18.1781 14.976 17.9701 15.448 17.9701 16.088C17.9701 16.6 18.0981 17 18.3541 17.288C18.6261 17.56 18.9941 17.696 19.4581 17.696Z" fill="#062700"/>
<path d="M34.0466 4.59201C33.5026 4.59201 33.1106 4.72001 32.8706 4.97601C32.6306 5.23201 32.5106 5.66401 32.5106 6.27201V7.25601H35.5106L35.1026 9.89601H32.5106V20H28.7186V9.89601H26.7986V7.25601H28.7186V6.12801C28.7186 4.84801 29.1346 3.80801 29.9666 3.00801C30.8146 2.19201 32.0226 1.78401 33.5906 1.78401C34.8546 1.78401 36.0146 2.05601 37.0706 2.60001L36.0386 5.07201C35.3986 4.75201 34.7346 4.59201 34.0466 4.59201Z" fill="#062700"/>
<path d="M46.3113 16.304C46.3113 16.784 46.3753 17.136 46.5033 17.36C46.6473 17.584 46.8713 17.752 47.1753 17.864L46.3833 20.336C45.5993 20.272 44.9593 20.104 44.4633 19.832C43.9673 19.544 43.5833 19.096 43.3113 18.488C42.4793 19.768 41.1993 20.408 39.4713 20.408C38.2073 20.408 37.1993 20.04 36.4473 19.304C35.6953 18.568 35.3193 17.608 35.3193 16.424C35.3193 15.032 35.8313 13.968 36.8553 13.232C37.8793 12.496 39.3593 12.128 41.2953 12.128H42.5913V11.576C42.5913 10.824 42.4313 10.312 42.1113 10.04C41.7913 9.75201 41.2313 9.60801 40.4313 9.60801C40.0153 9.60801 39.5113 9.67201 38.9193 9.80001C38.3273 9.91201 37.7193 10.072 37.0953 10.28L36.2313 7.78401C37.0313 7.48001 37.8473 7.24801 38.6793 7.08801C39.5273 6.92801 40.3113 6.84801 41.0313 6.84801C42.8553 6.84801 44.1913 7.22401 45.0393 7.97601C45.8873 8.72801 46.3113 9.85601 46.3113 11.36V16.304ZM40.5753 17.696C41.4393 17.696 42.1113 17.288 42.5913 16.472V14.216H41.6553C40.7913 14.216 40.1433 14.368 39.7113 14.672C39.2953 14.976 39.0873 15.448 39.0873 16.088C39.0873 16.6 39.2153 17 39.4713 17.288C39.7433 17.56 40.1113 17.696 40.5753 17.696Z" fill="#062700"/>
<path d="M60.4437 13.376C60.4437 13.904 60.4197 14.36 60.3717 14.744H52.4757C52.6037 15.816 52.9077 16.568 53.3877 17C53.8677 17.432 54.5317 17.648 55.3797 17.648C55.8917 17.648 56.3877 17.56 56.8677 17.384C57.3477 17.192 57.8677 16.904 58.4277 16.52L59.9877 18.632C58.4997 19.816 56.8437 20.408 55.0197 20.408C52.9557 20.408 51.3717 19.8 50.2677 18.584C49.1637 17.368 48.6117 15.736 48.6117 13.688C48.6117 12.392 48.8437 11.232 49.3077 10.208C49.7717 9.16801 50.4517 8.35201 51.3477 7.76001C52.2437 7.15201 53.3157 6.84801 54.5637 6.84801C56.4037 6.84801 57.8437 7.42401 58.8837 8.57601C59.9237 9.72801 60.4437 11.328 60.4437 13.376ZM56.7237 12.296C56.6917 10.344 56.0037 9.36801 54.6597 9.36801C54.0037 9.36801 53.4917 9.60801 53.1237 10.088C52.7717 10.568 52.5557 11.36 52.4757 12.464H56.7237V12.296Z" fill="#062700"/>
<path d="M65.9579 20.408C64.8539 20.408 63.9899 20.096 63.3659 19.472C62.7579 18.832 62.4539 17.928 62.4539 16.76V2.19201L66.2459 1.78401V16.616C66.2459 17.144 66.4619 17.408 66.8939 17.408C67.1179 17.408 67.3259 17.368 67.5179 17.288L68.2619 19.976C67.5739 20.264 66.8059 20.408 65.9579 20.408Z" fill="#062700"/>
<path d="M91.9782 20H88.1143L87.8262 13.496C87.7462 11.944 87.7062 10.56 87.7062 9.34401C87.7062 8.41601 87.7302 7.53601 87.7782 6.70401L85.2103 18.248H81.4902L78.7542 6.70401C78.8502 8.09601 78.8982 9.40801 78.8982 10.64C78.8982 11.568 78.8742 12.536 78.8262 13.544L78.5382 20H74.6982L75.9463 3.36801H80.9142L83.4102 14.648L85.7383 3.36801H90.7302L91.9782 20Z" fill="#062700"/>
<path d="M104.389 16.304C104.389 16.784 104.453 17.136 104.581 17.36C104.725 17.584 104.949 17.752 105.253 17.864L104.461 20.336C103.677 20.272 103.037 20.104 102.541 19.832C102.045 19.544 101.661 19.096 101.389 18.488C100.557 19.768 99.2774 20.408 97.5494 20.408C96.2854 20.408 95.2774 20.04 94.5254 19.304C93.7734 18.568 93.3974 17.608 93.3974 16.424C93.3974 15.032 93.9094 13.968 94.9334 13.232C95.9574 12.496 97.4374 12.128 99.3734 12.128H100.669V11.576C100.669 10.824 100.509 10.312 100.189 10.04C99.8694 9.75201 99.3094 9.60801 98.5094 9.60801C98.0934 9.60801 97.5894 9.67201 96.9974 9.80001C96.4054 9.91201 95.7974 10.072 95.1734 10.28L94.3094 7.78401C95.1094 7.48001 95.9254 7.24801 96.7574 7.08801C97.6054 6.92801 98.3894 6.84801 99.1094 6.84801C100.933 6.84801 102.269 7.22401 103.117 7.97601C103.965 8.72801 104.389 9.85601 104.389 11.36V16.304ZM98.6534 17.696C99.5174 17.696 100.189 17.288 100.669 16.472V14.216H99.7334C98.8694 14.216 98.2214 14.368 97.7894 14.672C97.3734 14.976 97.1654 15.448 97.1654 16.088C97.1654 16.6 97.2934 17 97.5494 17.288C97.8214 17.56 98.1894 17.696 98.6534 17.696Z" fill="#062700"/>
<path d="M114.322 6.89601C114.786 6.89601 115.21 6.95201 115.594 7.06401L114.994 10.736C114.514 10.624 114.13 10.568 113.842 10.568C113.09 10.568 112.514 10.832 112.114 11.36C111.73 11.872 111.426 12.648 111.202 13.688V20H107.41V7.25601H110.722L111.034 9.72801C111.322 8.84801 111.754 8.16001 112.33 7.66401C112.922 7.15201 113.586 6.89601 114.322 6.89601Z" fill="#062700"/>
<path d="M125.035 19.4C124.571 19.72 124.027 19.968 123.403 20.144C122.795 20.32 122.187 20.408 121.579 20.408C118.795 20.392 117.403 18.856 117.403 15.8V9.89601H115.603V7.25601H117.403V4.49601L121.195 4.06401V7.25601H124.123L123.715 9.89601H121.195V15.752C121.195 16.344 121.291 16.768 121.483 17.024C121.675 17.28 121.979 17.408 122.395 17.408C122.827 17.408 123.283 17.272 123.763 17L125.035 19.4Z" fill="#062700"/>
<path d="M130.092 7.25601V20H126.3V7.25601H130.092ZM128.173 0.536011C128.829 0.536011 129.365 0.744011 129.781 1.16001C130.213 1.56001 130.428 2.07201 130.428 2.69601C130.428 3.32001 130.213 3.84001 129.781 4.25601C129.365 4.65601 128.829 4.85601 128.173 4.85601C127.517 4.85601 126.98 4.65601 126.564 4.25601C126.148 3.84001 125.94 3.32001 125.94 2.69601C125.94 2.07201 126.148 1.56001 126.564 1.16001C126.98 0.744011 127.517 0.536011 128.173 0.536011Z" fill="#062700"/>
<path d="M140.538 6.84801C141.642 6.84801 142.506 7.18401 143.13 7.85601C143.754 8.52801 144.066 9.47201 144.066 10.688V20H140.274V11.336C140.274 10.696 140.17 10.256 139.962 10.016C139.77 9.76001 139.474 9.63201 139.074 9.63201C138.306 9.63201 137.57 10.184 136.866 11.288V20H133.074V7.25601H136.386L136.65 8.76801C137.194 8.12801 137.778 7.64801 138.402 7.32801C139.042 7.00801 139.754 6.84801 140.538 6.84801Z" fill="#062700"/>
<path d="M151.413 6.84801C152.325 6.84801 153.181 6.98401 153.981 7.25601C154.781 7.52801 155.486 7.91201 156.094 8.40801L154.701 10.544C153.661 9.88801 152.613 9.56001 151.557 9.56001C151.061 9.56001 150.678 9.64801 150.406 9.82401C150.15 9.98401 150.021 10.216 150.021 10.52C150.021 10.76 150.077 10.96 150.189 11.12C150.317 11.264 150.566 11.416 150.934 11.576C151.302 11.736 151.869 11.928 152.637 12.152C153.965 12.536 154.949 13.04 155.589 13.664C156.245 14.272 156.574 15.12 156.574 16.208C156.574 17.072 156.325 17.824 155.829 18.464C155.333 19.088 154.654 19.568 153.79 19.904C152.926 20.24 151.965 20.408 150.91 20.408C149.838 20.408 148.838 20.24 147.91 19.904C146.998 19.568 146.221 19.104 145.581 18.512L147.43 16.448C148.502 17.28 149.629 17.696 150.813 17.696C151.389 17.696 151.838 17.592 152.158 17.384C152.494 17.176 152.661 16.88 152.661 16.496C152.661 16.192 152.597 15.952 152.469 15.776C152.341 15.6 152.093 15.44 151.725 15.296C151.357 15.136 150.773 14.944 149.973 14.72C148.709 14.352 147.765 13.84 147.141 13.184C146.517 12.528 146.205 11.712 146.205 10.736C146.205 10 146.413 9.34401 146.829 8.76801C147.261 8.17601 147.87 7.71201 148.654 7.37601C149.454 7.02401 150.373 6.84801 151.413 6.84801Z" fill="#062700"/>
</svg>
