<svg width="24" height="24" viewBox="0 0 24 24" fill="none" xmlns="http://www.w3.org/2000/svg">
<path d="M19.6031 8.30627C19.35 8.2219 19.0969 8.14221 18.8438 8.06721C18.8859 7.89377 18.9234 7.72034 18.9609 7.5469C19.5375 4.75315 19.1578 2.50784 17.8781 1.76721C16.6453 1.0594 14.6344 1.79534 12.6 3.56721C12.3984 3.74065 12.2016 3.92346 12.0141 4.10627C11.8875 3.9844 11.7562 3.86252 11.625 3.74534C9.49219 1.85159 7.35469 1.05471 6.075 1.80002C4.84688 2.51252 4.48125 4.62659 4.99687 7.27034C5.04844 7.53284 5.10469 7.79065 5.17031 8.05315C4.87031 8.13752 4.575 8.23127 4.29844 8.32971C1.79531 9.1969 0 10.5656 0 11.9813C0 13.4438 1.9125 14.911 4.51406 15.8016C4.725 15.8719 4.93594 15.9422 5.15156 16.0031C5.08125 16.2844 5.02031 16.561 4.96406 16.8469C4.47188 19.4485 4.85625 21.511 6.08438 22.2188C7.35 22.95 9.47812 22.2 11.55 20.386C11.7141 20.2406 11.8781 20.0906 12.0422 19.9313C12.2484 20.1328 12.4641 20.325 12.6797 20.5125C14.6859 22.2375 16.6688 22.936 17.8922 22.2281C19.1578 21.4969 19.5703 19.2797 19.0359 16.5797C18.9938 16.3735 18.9469 16.1625 18.8953 15.9469C19.0453 15.9047 19.1906 15.8578 19.3359 15.811C22.0406 14.9156 24 13.4672 24 11.9813C24 10.561 22.1531 9.18284 19.6031 8.30627ZM13.2609 4.32659C15.0047 2.80784 16.6313 2.21252 17.3719 2.63909C18.1641 3.09377 18.4687 4.93127 17.9719 7.34534C17.9391 7.50471 17.9063 7.6594 17.8641 7.81409C16.8234 7.57971 15.7687 7.41096 14.7094 7.31721C14.1 6.44534 13.4344 5.61096 12.7125 4.82815C12.8953 4.65471 13.0734 4.49065 13.2609 4.32659ZM7.8375 14.4141C8.07656 14.8219 8.32031 15.2297 8.57812 15.6281C7.84687 15.5485 7.12031 15.4313 6.40313 15.2766C6.60938 14.6016 6.86719 13.9031 7.16719 13.1906C7.38281 13.6031 7.60312 14.011 7.8375 14.4141ZM6.41719 8.77502C7.09219 8.62502 7.80938 8.50315 8.55469 8.4094C8.30625 8.79846 8.0625 9.1969 7.83281 9.60002C7.60313 9.99846 7.37812 10.4063 7.16719 10.8188C6.87187 10.1203 6.62344 9.43596 6.41719 8.77502ZM7.70156 12.0047C8.01094 11.3578 8.34844 10.725 8.70469 10.1016C9.06094 9.47815 9.44531 8.87346 9.84844 8.27815C10.5516 8.22659 11.2687 8.19846 12 8.19846C12.7313 8.19846 13.4531 8.22659 14.1516 8.27815C14.55 8.86877 14.9297 9.47346 15.2906 10.0922C15.6516 10.711 15.9891 11.3438 16.3078 11.986C15.9937 12.6328 15.6562 13.2703 15.2953 13.8985C14.9391 14.5219 14.5594 15.1266 14.1609 15.7266C13.4625 15.7781 12.7359 15.8016 12 15.8016C11.2641 15.8016 10.5516 15.7781 9.8625 15.736C9.45469 15.1406 9.07031 14.5313 8.70938 13.9078C8.34844 13.2844 8.01563 12.6516 7.70156 12.0047ZM16.1672 14.4047C16.4062 13.9922 16.6313 13.575 16.8516 13.1531C17.1516 13.8328 17.4141 14.5219 17.6437 15.2297C16.9172 15.3938 16.1812 15.5203 15.4406 15.6047C15.6937 15.211 15.9328 14.8078 16.1672 14.4047ZM16.8422 10.8188C16.6219 10.4063 16.3969 9.99377 16.1625 9.59065C15.9328 9.19221 15.6938 8.79846 15.4453 8.4094C16.2 8.50315 16.9219 8.62971 17.5969 8.7844C17.3812 9.47815 17.1281 10.1531 16.8422 10.8188ZM12.0094 5.54534C12.5016 6.07971 12.9656 6.64221 13.3969 7.22346C12.4687 7.18127 11.5359 7.18127 10.6078 7.22346C11.0672 6.61877 11.5406 6.05627 12.0094 5.54534ZM6.57187 2.6719C7.35937 2.21252 9.10781 2.86877 10.95 4.50002C11.0672 4.60315 11.1844 4.71565 11.3062 4.82815C10.5797 5.61096 9.90938 6.44534 9.29531 7.31721C8.23594 7.41096 7.18594 7.57502 6.14531 7.80471C6.08438 7.56565 6.03281 7.3219 5.98125 7.07815C5.54062 4.8094 5.83125 3.09846 6.57187 2.6719ZM5.42344 15.0281C5.22656 14.9719 5.03438 14.911 4.84219 14.8453C3.84375 14.5313 2.70937 14.0344 1.88906 13.3828C1.41562 13.0547 1.09687 12.5485 1.00781 11.9813C1.00781 11.1235 2.48906 10.0266 4.62656 9.28127C4.89375 9.18752 5.16562 9.10315 5.4375 9.02346C5.75625 10.0406 6.14062 11.0391 6.58594 12.0047C6.13594 12.9844 5.74687 13.9969 5.42344 15.0281ZM10.8891 19.6219C10.1156 20.3297 9.22031 20.8922 8.24531 21.2766C7.725 21.525 7.125 21.5485 6.59063 21.3375C5.84531 20.9063 5.53594 19.2516 5.95781 17.025C6.00937 16.7625 6.06563 16.5 6.13125 16.2422C7.18125 16.4672 8.24062 16.6219 9.31406 16.7016C9.93281 17.5781 10.6125 18.4172 11.3391 19.2047C11.1891 19.35 11.0391 19.4906 10.8891 19.6219ZM12.0375 18.4828C11.5594 17.9672 11.0812 17.3953 10.6172 16.7813C11.0672 16.8 11.5312 16.8094 12 16.8094C12.4828 16.8094 12.9562 16.8 13.425 16.7766C12.9937 17.3719 12.5297 17.9391 12.0375 18.4828ZM18.1641 19.8891C18.1219 20.461 17.8406 20.9953 17.3906 21.3563C16.6453 21.7875 15.0563 21.225 13.3406 19.7531C13.1438 19.5844 12.9469 19.4016 12.7453 19.2141C13.4625 18.4219 14.1234 17.5828 14.7234 16.7016C15.7969 16.6125 16.8656 16.4485 17.9203 16.2094C17.9672 16.4016 18.0094 16.5938 18.0469 16.7813C18.2766 17.7938 18.3141 18.8485 18.1641 19.8891ZM19.0172 14.85C18.8859 14.8922 18.7547 14.9344 18.6188 14.9719C18.2906 13.95 17.8875 12.9516 17.4234 11.9813C17.8734 11.025 18.2531 10.0406 18.5719 9.03284C18.8156 9.10315 19.05 9.17815 19.275 9.25315C21.4594 10.0031 22.9922 11.1188 22.9922 11.9719C22.9922 12.8906 21.3563 14.0766 19.0172 14.85ZM12 14.1469C13.1859 14.1469 14.1469 13.186 14.1469 12C14.1469 10.8141 13.1859 9.85315 12 9.85315C10.8141 9.85315 9.85312 10.8141 9.85312 12C9.85312 13.186 10.8141 14.1469 12 14.1469Z" fill="#666666"/>
</svg>
