<svg width="24" height="28" viewBox="0 0 24 28" fill="none" xmlns="http://www.w3.org/2000/svg">
<path d="M23.4286 2H0.571429C0.255429 2 0 2.256 0 2.57143V25.4286C0 25.744 0.255429 26 0.571429 26H23.4286C23.7446 26 24 25.744 24 25.4286V2.57143C24 2.256 23.7446 2 23.4286 2ZM14.2857 14.8257H11.4286V23.7143H9.14286V14.8257H6.28571V12.8571H14.2857V14.8257ZM14.9263 23.2069V20.8309C14.9263 20.8309 16.224 21.8091 17.7811 21.8091C19.3383 21.8091 19.2783 20.7909 19.2783 20.6514C19.2783 19.1737 14.8663 19.1737 14.8663 15.9C14.8663 11.448 21.2949 13.2046 21.2949 13.2046L21.2149 15.3211C21.2149 15.3211 20.1366 14.6023 18.9189 14.6023C17.7011 14.6023 17.2617 15.1811 17.2617 15.8C17.2617 17.3971 21.7137 17.2377 21.7137 20.452C21.7143 25.4029 14.9263 23.2069 14.9263 23.2069Z" fill="#666666"/>
</svg>
